<svg width="64" height="64" viewBox="0 0 64 64" fill="none" xmlns="http://www.w3.org/2000/svg">
<rect x="22.333" y="22.333" width="26.6667" height="26.6667" rx="12" fill="#FFB144"/>
<rect x="2" y="2" width="60" height="60" rx="12" fill="#E6F7FF"/>
<path fill-rule="evenodd" clip-rule="evenodd" d="M32.514 28.5827L42.6136 17H21C18.7909 17 17 18.7909 17 21V43C17 45.2091 18.7909 47 21 47H43C45.2091 47 47 45.2091 47 43V22.665L36.0477 32.1525C35.7232 31.3592 35.2544 30.6381 34.6414 30.0251C34.0285 29.4121 33.3073 28.9433 32.514 28.5827ZM23.6075 39.9051C22.9585 39.7969 22.7782 38.9676 23.3191 38.5709C24.9701 37.3327 25.3927 35.8227 25.7835 34.4264C26.0754 33.3831 26.3496 32.4033 27.1052 31.6477C28.7278 30.0251 31.3962 30.0251 33.0188 31.6477C34.6414 33.2703 34.6414 35.9387 33.0188 37.5613C31.3241 39.2561 28.1149 40.8426 23.6075 39.9051Z" fill="url(#paint0_linear)"/>
<defs>
<linearGradient id="paint0_linear" x1="32" y1="17" x2="32" y2="47" gradientUnits="userSpaceOnUse">
<stop stop-color="#5394FF"/>
<stop offset="1" stop-color="#0060FF"/>
</linearGradient>
</defs>
</svg>
