<svg width="64" height="64" viewBox="0 0 64 64" fill="none" xmlns="http://www.w3.org/2000/svg">
<rect x="22.333" y="22.333" width="26.6667" height="26.6667" rx="12" fill="#FFB144"/>
<rect x="2" y="2" width="60" height="60" rx="12" fill="#E6F7FF"/>
<path d="M31.15 40.8118L26.26 45.7018L22.5475 41.9893L31.1425 33.4018L35.3275 29.2168L40.045 24.5068L43.795 28.2118L31.15 40.8118ZM30.0025 24.9868L32.2075 22.8118L35.2675 19.7443L39.0175 23.4568L35.9575 26.5243L34.3075 28.1743L21.5575 40.9618L17.845 37.2118L30.0025 24.9868ZM38.6275 16.3543C38.866 16.1269 39.1829 16 39.5125 16C39.8421 16 40.159 16.1269 40.3975 16.3543L47.1475 23.1043C47.2642 23.2202 47.3567 23.3581 47.4198 23.51C47.4829 23.6619 47.5152 23.8248 47.515 23.9893C47.5122 24.3208 47.3804 24.6383 47.1475 24.8743L44.845 27.1693L40.6075 22.9243L36.37 18.6868L38.6275 16.3543ZM17.2375 38.8393L24.6625 46.2643L16 47.4868L17.2375 38.8393Z" fill="url(#paint0_linear)"/>
<path opacity="0.5" d="M14 23.3773L22.3773 15L25.5123 18.135L20.27 23.3773C20.1658 23.4807 20.0946 23.6129 20.0658 23.7568C20.0369 23.9008 20.0515 24.0502 20.1078 24.1858C20.1642 24.3215 20.2596 24.4372 20.382 24.5184C20.5044 24.5996 20.6481 24.6425 20.795 24.6417C20.99 24.6389 21.1761 24.5592 21.3126 24.4198L26.5475 19.1923L30.2075 22.8523L21.8375 31.2075L14 23.3773ZM40.1227 49.5L32.2925 41.6624L37.52 36.435L40.6551 33.2925L44.352 36.9895L39.1245 42.2244C39.0232 42.3277 38.9544 42.4585 38.9267 42.6006C38.8991 42.7427 38.9137 42.8897 38.9688 43.0236C39.0239 43.1574 39.1171 43.2721 39.2367 43.3535C39.3564 43.4349 39.4974 43.4793 39.6421 43.4813C39.7394 43.4819 39.8359 43.4633 39.9259 43.4265C40.016 43.3897 40.098 43.3355 40.1671 43.2669L45.3946 38.0394L48.5 41.1227L40.1227 49.5Z" fill="url(#paint1_linear)"/>
<defs>
<linearGradient id="paint0_linear" x1="31.7575" y1="16" x2="31.7575" y2="47.4868" gradientUnits="userSpaceOnUse">
<stop stop-color="#5394FF"/>
<stop offset="1" stop-color="#0060FF"/>
</linearGradient>
<linearGradient id="paint1_linear" x1="31.25" y1="15" x2="31.25" y2="49.5" gradientUnits="userSpaceOnUse">
<stop stop-color="#5394FF"/>
<stop offset="1" stop-color="#0060FF"/>
</linearGradient>
</defs>
</svg>
