<svg width="64" height="64" viewBox="0 0 64 64" fill="none" xmlns="http://www.w3.org/2000/svg">
<rect x="22.333" y="22.333" width="26.6667" height="26.6667" rx="12" fill="#FFB144"/>
<rect x="2" y="2" width="60" height="60" rx="12" fill="#E6F7FF"/>
<rect x="14" y="21" width="36" height="26" rx="4" fill="url(#paint0_linear)"/>
<path opacity="0.5" d="M18 19C18 17.3431 19.3431 16 21 16H43C44.6569 16 46 17.3431 46 19H18Z" fill="url(#paint1_linear)"/>
<path opacity="0.25" d="M23 14C23 12.3431 24.3431 11 26 11H38C39.6569 11 41 12.3431 41 14H23Z" fill="url(#paint2_linear)"/>
<rect x="30" y="30" width="16" height="3" rx="1.5" fill="white"/>
<rect x="30" y="35" width="8" height="3" rx="1.5" fill="white"/>
<rect x="18" y="29" width="10" height="10" rx="5" fill="white"/>
<defs>
<linearGradient id="paint0_linear" x1="32" y1="21" x2="32" y2="47" gradientUnits="userSpaceOnUse">
<stop stop-color="#5394FF"/>
<stop offset="1" stop-color="#0060FF"/>
</linearGradient>
<linearGradient id="paint1_linear" x1="32" y1="16" x2="32" y2="19" gradientUnits="userSpaceOnUse">
<stop stop-color="#5394FF"/>
<stop offset="1" stop-color="#0060FF"/>
</linearGradient>
<linearGradient id="paint2_linear" x1="32" y1="11" x2="32" y2="14" gradientUnits="userSpaceOnUse">
<stop stop-color="#5394FF"/>
<stop offset="1" stop-color="#0060FF"/>
</linearGradient>
</defs>
</svg>
