<svg width="64" height="64" viewBox="0 0 64 64" fill="none" xmlns="http://www.w3.org/2000/svg">
<rect x="22.333" y="22.333" width="26.6667" height="26.6667" rx="12" fill="#FFB144"/>
<rect x="2" y="2" width="60" height="60" rx="12" fill="#E6F7FF"/>
<rect x="14" y="19" width="36" height="26" rx="4" fill="url(#paint0_linear)"/>
<path d="M39.3102 29.3901C39.1799 29.3901 39.0496 29.3901 38.9193 29.3901C38.5644 29.3901 38.2096 29.3901 37.8547 29.3901C37.3301 29.3901 36.8055 29.3901 36.2809 29.3901C35.6414 29.3901 35.0002 29.3901 34.3608 29.3901C33.6596 29.3901 32.9584 29.3901 32.2572 29.3901C31.5492 29.3901 30.8411 29.3901 30.1331 29.3901C29.473 29.3901 28.813 29.3901 28.153 29.3901C27.5975 29.3901 27.042 29.3901 26.4866 29.3901C26.0854 29.3901 25.6843 29.3901 25.2831 29.3901C25.0928 29.3901 24.9025 29.3883 24.7122 29.3901C24.7036 29.3901 24.6951 29.3901 24.6882 29.3901C24.8853 29.7347 25.0825 30.0775 25.2797 30.4221C25.53 30.0415 25.7803 29.6592 26.0306 29.2786C26.43 28.6717 26.8277 28.0631 27.2272 27.4562C27.3181 27.3174 27.4106 27.1768 27.5015 27.0379C27.3043 27.1511 27.1072 27.2642 26.91 27.3774C27.2478 27.3774 27.5855 27.3774 27.9232 27.3774C28.7341 27.3774 29.5451 27.3774 30.356 27.3774C31.3366 27.3774 32.3172 27.3774 33.2978 27.3774C34.1448 27.3774 34.9934 27.3774 35.8403 27.3774C36.2517 27.3774 36.6615 27.3842 37.0729 27.3774C37.0781 27.3774 37.0832 27.3774 37.0901 27.3774C36.8929 27.2642 36.6958 27.1511 36.4986 27.0379C36.7489 27.4185 36.9992 27.8008 37.2495 28.1814C37.649 28.7883 38.0467 29.3969 38.4462 30.0038C38.537 30.1427 38.6296 30.2833 38.7205 30.4221C38.8182 30.5713 38.9553 30.6896 39.1302 30.7376C39.2948 30.7821 39.5125 30.7616 39.6582 30.669C39.8039 30.5747 39.9342 30.4341 39.9737 30.2593C40.0131 30.0844 40.0062 29.8855 39.9051 29.7312C39.5982 29.2649 39.2913 28.7969 38.9862 28.3306C38.5799 27.71 38.1718 27.0911 37.7655 26.4705C37.7381 26.4293 37.7107 26.3865 37.6832 26.3453C37.541 26.1344 37.3387 26.011 37.0832 26.0059C37.0712 26.0059 37.0592 26.0059 37.0472 26.0059C36.9135 26.0059 36.7781 26.0059 36.6443 26.0059C36.0494 26.0059 35.4545 26.0059 34.8597 26.0059C34.0145 26.0059 33.171 26.0059 32.3258 26.0059C31.4549 26.0059 30.5823 26.0059 29.7113 26.0059C29.0342 26.0059 28.357 26.0059 27.6798 26.0059C27.4861 26.0059 27.2941 26.0059 27.1003 26.0059C27.0506 26.0059 27.0009 26.0059 26.9512 26.0059C26.9409 26.0059 26.9289 26.0059 26.9186 26.0059C26.6632 26.0144 26.4626 26.1379 26.3203 26.347C25.9928 26.8202 25.6894 27.3088 25.3739 27.7888C24.9728 28.4009 24.5716 29.0112 24.1704 29.6232C24.1464 29.6592 24.1224 29.6952 24.1002 29.7312C23.8104 30.1735 24.1927 30.7633 24.6916 30.7633C24.8219 30.7633 24.9522 30.7633 25.0825 30.7633C25.4374 30.7633 25.7923 30.7633 26.1471 30.7633C26.6717 30.7633 27.1963 30.7633 27.7209 30.7633C28.3604 30.7633 29.0016 30.7633 29.6411 30.7633C30.3422 30.7633 31.0434 30.7633 31.7446 30.7633C32.4527 30.7633 33.1607 30.7633 33.8687 30.7633C34.5288 30.7633 35.1888 30.7633 35.8489 30.7633C36.4043 30.7633 36.9598 30.7633 37.5152 30.7633C37.9164 30.7633 38.3176 30.7633 38.7187 30.7633C38.909 30.7633 39.0993 30.765 39.2896 30.7633C39.2982 30.7633 39.3068 30.7633 39.3136 30.7633C39.6719 30.7633 40.0165 30.4478 39.9994 30.0775C39.9788 29.7038 39.6942 29.3901 39.3102 29.3901Z" fill="#E5F7FF"/>
<path d="M32.4924 37.5211C32.2489 37.257 32.0038 36.993 31.7603 36.7273C31.1791 36.0964 30.5962 35.4672 30.0151 34.8363C29.3087 34.07 28.6007 33.3037 27.8944 32.5373C27.2875 31.879 26.6789 31.2207 26.072 30.5624C25.7771 30.2418 25.4857 29.916 25.1856 29.6006C25.1805 29.5954 25.1771 29.592 25.1736 29.5869C25.0125 29.9778 24.8496 30.3669 24.6885 30.7578C24.8188 30.7578 24.9491 30.7578 25.0793 30.7578C25.4342 30.7578 25.7891 30.7578 26.144 30.7578C26.6686 30.7578 27.1932 30.7578 27.7178 30.7578C28.3573 30.7578 28.9984 30.7578 29.6379 30.7578C30.3391 30.7578 31.0403 30.7578 31.7415 30.7578C32.4495 30.7578 33.1575 30.7578 33.8656 30.7578C34.5256 30.7578 35.1857 30.7578 35.8457 30.7578C36.4012 30.7578 36.9566 30.7578 37.5121 30.7578C37.9132 30.7578 38.3144 30.7578 38.7156 30.7578C38.9059 30.7578 39.0962 30.7595 39.2865 30.7578C39.295 30.7578 39.3036 30.7578 39.3105 30.7578C39.1493 30.3669 38.9865 29.9778 38.8253 29.5869C38.5819 29.8509 38.3384 30.1166 38.0933 30.3806C37.5121 31.0115 36.9309 31.6424 36.3497 32.275C35.6468 33.0379 34.9456 33.8008 34.2427 34.5637C33.6359 35.2238 33.029 35.8821 32.4221 36.5421C32.1272 36.8627 31.8289 37.1816 31.5357 37.5056C31.5323 37.5108 31.5272 37.5142 31.5237 37.5193C31.402 37.6514 31.3231 37.8211 31.3231 38.0045C31.3231 38.1725 31.3986 38.3731 31.5237 38.4897C31.654 38.6097 31.8255 38.6988 32.0089 38.6903C32.1872 38.6817 32.3706 38.6234 32.4941 38.4897C32.7375 38.2257 32.981 37.9599 33.2261 37.6959C33.8073 37.065 34.3885 36.4341 34.9696 35.8015C35.6725 35.0386 36.3737 34.2757 37.0766 33.5128C37.6835 32.8528 38.2904 32.1945 38.8973 31.5344C39.1922 31.2138 39.4922 30.8967 39.7836 30.5709C39.7871 30.5658 39.7922 30.5624 39.7956 30.5572C39.9842 30.3515 40.0477 30.0686 39.9379 29.808C39.8334 29.5594 39.5865 29.3863 39.3105 29.3863C39.1802 29.3863 39.0499 29.3863 38.9196 29.3863C38.5647 29.3863 38.2098 29.3863 37.855 29.3863C37.3304 29.3863 36.8058 29.3863 36.2812 29.3863C35.6417 29.3863 35.0005 29.3863 34.361 29.3863C33.6599 29.3863 32.9587 29.3863 32.2575 29.3863C31.5494 29.3863 30.8414 29.3863 30.1334 29.3863C29.4733 29.3863 28.8133 29.3863 28.1532 29.3863C27.5978 29.3863 27.0423 29.3863 26.4869 29.3863C26.0857 29.3863 25.6845 29.3863 25.2834 29.3863C25.0931 29.3863 24.9028 29.3829 24.7125 29.3863C24.7039 29.3863 24.6953 29.3863 24.6885 29.3863C24.4142 29.3863 24.1673 29.5594 24.061 29.808C23.9513 30.0669 24.013 30.3515 24.2033 30.5572C24.4467 30.8212 24.6919 31.0852 24.9353 31.351C25.5165 31.9819 26.0994 32.6111 26.6806 33.2419C27.3869 34.0083 28.095 34.7746 28.8013 35.5409C29.4082 36.1993 30.0168 36.8576 30.6237 37.5159C30.9185 37.8365 31.21 38.1622 31.51 38.4777C31.5152 38.4828 31.5186 38.4863 31.522 38.4914C31.7655 38.7554 32.2489 38.7571 32.4924 38.4914C32.7512 38.2085 32.7512 37.8039 32.4924 37.5211Z" fill="#E5F7FF"/>
<path d="M33.7551 26.871C33.846 27.2516 33.9385 27.6322 34.0294 28.0128C34.1751 28.6197 34.3208 29.2266 34.4666 29.8335C34.5009 29.9724 34.5334 30.1112 34.5677 30.2518C34.6517 30.6015 35.0666 30.8416 35.4112 30.7301C35.7746 30.6118 35.9804 30.2604 35.8895 29.8866C35.7986 29.506 35.7061 29.1254 35.6152 28.7449C35.4695 28.138 35.3238 27.5311 35.178 26.9242C35.1437 26.7853 35.1112 26.6464 35.0769 26.5059C34.9929 26.1561 34.578 25.9161 34.2334 26.0276C33.8717 26.1458 33.6659 26.4973 33.7551 26.871Z" fill="#E5F7FF"/>
<path d="M34.568 29.8877C34.4617 30.1517 34.3537 30.414 34.2474 30.678C33.9903 31.3106 33.7331 31.9432 33.4776 32.5759C33.1673 33.3388 32.8588 34.0999 32.5485 34.8629C32.2793 35.5246 32.0118 36.1864 31.7427 36.8464C31.6124 37.167 31.4718 37.4859 31.3518 37.8116C31.3501 37.8167 31.3484 37.8202 31.3467 37.8253C31.2849 37.9796 31.3364 38.2179 31.4152 38.3533C31.4992 38.4956 31.6621 38.6311 31.825 38.6688C31.9998 38.7082 32.197 38.6996 32.353 38.6002C32.3993 38.5642 32.4456 38.5282 32.4919 38.4922C32.5776 38.4065 32.6359 38.3053 32.6685 38.1888C32.7748 37.9247 32.8828 37.6624 32.989 37.3984C33.2462 36.7658 33.5034 36.1332 33.7588 35.5006C34.0691 34.7377 34.3777 33.9765 34.688 33.2136C34.9572 32.5519 35.2246 31.8901 35.4938 31.2301C35.6241 30.9095 35.7646 30.5906 35.8847 30.2649C35.8864 30.2597 35.8881 30.2563 35.8898 30.2511C35.9515 30.0969 35.9001 29.8586 35.8212 29.7231C35.7372 29.5808 35.5743 29.4454 35.4115 29.4077C35.2366 29.3682 35.0395 29.3768 34.8834 29.4762C34.8372 29.5122 34.7909 29.5482 34.7446 29.5843C34.6606 29.67 34.6006 29.7711 34.568 29.8877Z" fill="#E5F7FF"/>
<path d="M28.9419 26.5066C28.851 26.8872 28.7584 27.2678 28.6676 27.6484C28.5219 28.2553 28.3761 28.8621 28.2304 29.469C28.1961 29.6079 28.1636 29.7468 28.1293 29.8874C28.0864 30.0639 28.1053 30.2577 28.1978 30.4154C28.2818 30.5577 28.4447 30.6931 28.6076 30.7308C28.9607 30.8114 29.3619 30.6245 29.4511 30.2525C29.5419 29.8719 29.6345 29.4913 29.7254 29.1107C29.8711 28.5038 30.0168 27.8969 30.1625 27.2901C30.1968 27.1512 30.2294 27.0123 30.2637 26.8717C30.3065 26.6952 30.2877 26.5014 30.1951 26.3437C30.1111 26.2014 29.9482 26.066 29.7854 26.0283C29.4322 25.9477 29.031 26.1346 28.9419 26.5066Z" fill="#E5F7FF"/>
<path d="M28.1293 30.2512C28.2356 30.5152 28.3436 30.7775 28.4499 31.0415C28.7071 31.6742 28.9625 32.3068 29.2197 32.9394C29.5283 33.7023 29.8369 34.4635 30.1472 35.2264C30.4146 35.8881 30.6838 36.5499 30.9512 37.2099C31.0815 37.5322 31.2118 37.8528 31.3421 38.1751C31.3438 38.1803 31.3455 38.1837 31.3472 38.1888C31.4175 38.3603 31.4964 38.5008 31.6627 38.5986C31.8101 38.6843 32.0261 38.7203 32.1907 38.6671C32.357 38.614 32.5165 38.5111 32.6005 38.3517C32.681 38.1991 32.7376 37.99 32.669 37.8237C32.5627 37.5597 32.4547 37.2973 32.3485 37.0333C32.0913 36.4007 31.8359 35.7681 31.5787 35.1355C31.2701 34.3726 30.9615 33.6114 30.6512 32.8485C30.3838 32.1868 30.1146 31.525 29.8472 30.865C29.7169 30.5427 29.5866 30.2221 29.4563 29.8998C29.4546 29.8946 29.4529 29.8912 29.4511 29.8861C29.3808 29.7146 29.302 29.574 29.1357 29.4763C28.9883 29.3906 28.7722 29.3546 28.6077 29.4077C28.4414 29.4609 28.2819 29.5637 28.1979 29.7232C28.1173 29.8758 28.0608 30.0849 28.1293 30.2512Z" fill="#E5F7FF"/>
<path opacity="0.4" d="M18 18C18 16.8954 18.8954 16 20 16H29C30.1046 16 31 16.8954 31 18V19H18V18Z" fill="url(#paint1_linear)"/>
<defs>
<linearGradient id="paint0_linear" x1="32" y1="19" x2="32" y2="45" gradientUnits="userSpaceOnUse">
<stop stop-color="#5394FF"/>
<stop offset="1" stop-color="#0060FF"/>
</linearGradient>
<linearGradient id="paint1_linear" x1="24.5" y1="16" x2="24.5" y2="19" gradientUnits="userSpaceOnUse">
<stop stop-color="#5394FF"/>
<stop offset="1" stop-color="#0060FF"/>
</linearGradient>
</defs>
</svg>
