<svg width="64" height="64" viewBox="0 0 64 64" fill="none" xmlns="http://www.w3.org/2000/svg">
<rect x="22.333" y="22.333" width="26.6667" height="26.6667" rx="12" fill="#FFB144"/>
<path d="M2 13.8017C2 7.25221 7.25148 1.91248 13.8 1.80333L49.8 1.20333C56.5047 1.09159 62 6.49602 62 13.2017V50C62 56.6274 56.6274 62 50 62H14C7.37258 62 2 56.6274 2 50V13.8017Z" fill="#E6F7FF"/>
<rect x="14" y="27" width="36" height="17" rx="4" fill="url(#paint0_linear)"/>
<path opacity="0.5" d="M18 25C18 23.3431 19.3431 22 21 22H43C44.6569 22 46 23.3431 46 25H18Z" fill="url(#paint1_linear)"/>
<path opacity="0.25" d="M23 20C23 18.3431 24.3431 17 26 17H38C39.6569 17 41 18.3431 41 20H23Z" fill="url(#paint2_linear)"/>
<rect x="26" y="38" width="12" height="12" rx="6" fill="#0060FF" stroke="#E5F7FF" stroke-width="2"/>
<defs>
<linearGradient id="paint0_linear" x1="32" y1="27" x2="32" y2="44" gradientUnits="userSpaceOnUse">
<stop stop-color="#5394FF"/>
<stop offset="1" stop-color="#0060FF"/>
</linearGradient>
<linearGradient id="paint1_linear" x1="32" y1="22" x2="32" y2="25" gradientUnits="userSpaceOnUse">
<stop stop-color="#5394FF"/>
<stop offset="1" stop-color="#0060FF"/>
</linearGradient>
<linearGradient id="paint2_linear" x1="32" y1="17" x2="32" y2="20" gradientUnits="userSpaceOnUse">
<stop stop-color="#5394FF"/>
<stop offset="1" stop-color="#0060FF"/>
</linearGradient>
</defs>
</svg>
