<svg width="64" height="64" viewBox="0 0 64 64" fill="none" xmlns="http://www.w3.org/2000/svg">
<rect x="22.333" y="22.3335" width="26.6667" height="26.6667" rx="12" fill="#FFB144"/>
<rect x="2" y="2.00049" width="60" height="60" rx="12" fill="#E6F7FF"/>
<rect x="16" y="21" width="32" height="28" rx="4" fill="url(#paint0_linear)"/>
<path opacity="0.5" d="M20 19C20 17.3431 21.3431 16 23 16H41C42.6569 16 44 17.3431 44 19H20Z" fill="url(#paint1_linear)"/>
<path opacity="0.25" d="M25 14C25 12.3431 26.3431 11 28 11H36C37.6569 11 39 12.3431 39 14H25Z" fill="url(#paint2_linear)"/>
<rect x="24" y="37" width="16" height="2" rx="1" fill="white"/>
<rect x="28" y="40" width="8" height="2" rx="1" fill="white"/>
<rect x="28" y="27" width="8" height="8" rx="4" fill="white"/>
<defs>
<linearGradient id="paint0_linear" x1="32" y1="21" x2="32" y2="49" gradientUnits="userSpaceOnUse">
<stop stop-color="#5394FF"/>
<stop offset="1" stop-color="#0060FF"/>
</linearGradient>
<linearGradient id="paint1_linear" x1="32" y1="16" x2="32" y2="19" gradientUnits="userSpaceOnUse">
<stop stop-color="#5394FF"/>
<stop offset="1" stop-color="#0060FF"/>
</linearGradient>
<linearGradient id="paint2_linear" x1="32" y1="11" x2="32" y2="14" gradientUnits="userSpaceOnUse">
<stop stop-color="#5394FF"/>
<stop offset="1" stop-color="#0060FF"/>
</linearGradient>
</defs>
</svg>
